<svg width="391" height="49" viewBox="0 0 391 49" fill="none" xmlns="http://www.w3.org/2000/svg">
<path d="M44.76 19.968L42.968 28.352H50.648V38.208H40.856L38.744 48H28.504L30.616 38.208H19.992L17.88 48H7.64L9.752 38.208H0.28V28.352H11.864L13.656 19.968H4.376V10.112H15.704L17.752 0.639999H27.992L25.944 10.112H36.568L38.616 0.639999H48.856L46.808 10.112H54.744V19.968H44.76ZM34.52 19.968H23.896L22.104 28.352H32.728L34.52 19.968ZM93.163 3.072V11.84H81.259V48H70.315V11.84H58.411V3.072H93.163ZM132.319 29.568C132.319 30.592 132.256 31.6587 132.128 32.768H107.36C107.53 34.9867 108.234 36.6933 109.472 37.888C110.752 39.04 112.309 39.616 114.144 39.616C116.874 39.616 118.773 38.464 119.84 36.16H131.488C130.89 38.5067 129.802 40.6187 128.224 42.496C126.688 44.3733 124.746 45.8453 122.4 46.912C120.053 47.9787 117.429 48.512 114.528 48.512C111.029 48.512 107.914 47.7653 105.184 46.272C102.453 44.7787 100.32 42.6453 98.7835 39.872C97.2475 37.0987 96.4795 33.856 96.4795 30.144C96.4795 26.432 97.2262 23.1893 98.7195 20.416C100.256 17.6427 102.389 15.5093 105.12 14.016C107.85 12.5227 110.986 11.776 114.528 11.776C117.984 11.776 121.056 12.5013 123.744 13.952C126.432 15.4027 128.522 17.472 130.016 20.16C131.552 22.848 132.319 25.984 132.319 29.568ZM121.12 26.688C121.12 24.8107 120.48 23.3173 119.2 22.208C117.92 21.0987 116.32 20.544 114.4 20.544C112.565 20.544 111.008 21.0773 109.728 22.144C108.49 23.2107 107.722 24.7253 107.424 26.688H121.12ZM173.357 12.288V48H162.413V43.136C161.304 44.7147 159.789 45.9947 157.869 46.976C155.992 47.9147 153.901 48.384 151.597 48.384C148.866 48.384 146.456 47.7867 144.365 46.592C142.274 45.3547 140.653 43.584 139.501 41.28C138.349 38.976 137.773 36.2667 137.773 33.152V12.288H148.653V31.68C148.653 34.0693 149.272 35.9253 150.509 37.248C151.746 38.5707 153.41 39.232 155.501 39.232C157.634 39.232 159.32 38.5707 160.557 37.248C161.794 35.9253 162.413 34.0693 162.413 31.68V12.288H173.357ZM210.466 3.072V11.84H192.162V21.312H205.858V29.824H192.162V48H181.218V3.072H210.466ZM251.482 12.288V48H240.538V43.136C239.429 44.7147 237.914 45.9947 235.994 46.976C234.117 47.9147 232.026 48.384 229.722 48.384C226.991 48.384 224.581 47.7867 222.49 46.592C220.399 45.3547 218.778 43.584 217.626 41.28C216.474 38.976 215.898 36.2667 215.898 33.152V12.288H226.778V31.68C226.778 34.0693 227.397 35.9253 228.634 37.248C229.871 38.5707 231.535 39.232 233.626 39.232C235.759 39.232 237.445 38.5707 238.682 37.248C239.919 35.9253 240.538 34.0693 240.538 31.68V12.288H251.482ZM279.247 38.72V48H273.679C269.711 48 266.618 47.04 264.399 45.12C262.18 43.1573 261.071 39.9787 261.071 35.584V21.376H256.719V12.288H261.071V3.584H272.015V12.288H279.183V21.376H272.015V35.712C272.015 36.7787 272.271 37.5467 272.783 38.016C273.295 38.4853 274.148 38.72 275.343 38.72H279.247ZM320.607 12.288V48H309.663V43.136C308.554 44.7147 307.039 45.9947 305.119 46.976C303.242 47.9147 301.151 48.384 298.847 48.384C296.116 48.384 293.706 47.7867 291.615 46.592C289.524 45.3547 287.903 43.584 286.751 41.28C285.599 38.976 285.023 36.2667 285.023 33.152V12.288H295.903V31.68C295.903 34.0693 296.522 35.9253 297.759 37.248C298.996 38.5707 300.66 39.232 302.751 39.232C304.884 39.232 306.57 38.5707 307.807 37.248C309.044 35.9253 309.663 34.0693 309.663 31.68V12.288H320.607ZM339.412 18.24C340.692 16.2773 342.292 14.7413 344.212 13.632C346.132 12.48 348.265 11.904 350.612 11.904V23.488H347.604C344.873 23.488 342.825 24.0853 341.46 25.28C340.095 26.432 339.412 28.48 339.412 31.424V48H328.468V12.288H339.412V18.24ZM372.099 48.512C368.6 48.512 365.443 47.7653 362.627 46.272C359.854 44.7787 357.656 42.6453 356.035 39.872C354.456 37.0987 353.667 33.856 353.667 30.144C353.667 26.4747 354.478 23.2533 356.099 20.48C357.72 17.664 359.939 15.5093 362.755 14.016C365.571 12.5227 368.728 11.776 372.227 11.776C375.726 11.776 378.883 12.5227 381.699 14.016C384.515 15.5093 386.734 17.664 388.355 20.48C389.976 23.2533 390.787 26.4747 390.787 30.144C390.787 33.8133 389.955 37.056 388.291 39.872C386.67 42.6453 384.43 44.7787 381.571 46.272C378.755 47.7653 375.598 48.512 372.099 48.512ZM372.099 39.04C374.19 39.04 375.96 38.272 377.411 36.736C378.904 35.2 379.651 33.0027 379.651 30.144C379.651 27.2853 378.926 25.088 377.475 23.552C376.067 22.016 374.318 21.248 372.227 21.248C370.094 21.248 368.323 22.016 366.915 23.552C365.507 25.0453 364.803 27.2427 364.803 30.144C364.803 33.0027 365.486 35.2 366.851 36.736C368.259 38.272 370.008 39.04 372.099 39.04Z" fill="white"/>
</svg>
