<svg width="147" height="120" viewBox="0 0 147 120" fill="none" xmlns="http://www.w3.org/2000/svg">
<path d="M120.053 48.3168L115.216 69.2754H135.945V93.9138H109.516L103.816 118.392H76.1774L81.8778 93.9138H53.2033L47.5029 118.392H19.8649L25.5652 93.9138H0V69.2754H31.2656L36.1022 48.3168H11.0552V23.6784H41.6298L47.1575 0H74.7955L69.2679 23.6784H97.9424L103.47 0H131.108L125.58 23.6784H147V48.3168H120.053ZM92.4148 48.3168H63.7403L58.9036 69.2754H87.5781L92.4148 48.3168Z" fill="white"/>
<path d="M43.5641 29.4538L62.5742 31.4579L43.6283 116.359L24.0274 116.359L43.5641 29.4538Z" fill="#685AA4"/>
<path d="M100.153 29.4538L119.163 31.4579L100.217 116.359L80.6165 116.359L100.153 29.4538Z" fill="#685AA4"/>
<path d="M100.908 26.7316H142.893V45.0637H96.7093L100.908 26.7316Z" fill="#685AA4"/>
<path d="M13.939 26.7316H111.704V45.0637H13.939V26.7316Z" fill="#685AA4"/>
<path d="M90.7114 72.2841H132.097V90.6162H90.7114V72.2841Z" fill="#685AA4"/>
<path d="M97.5384 23.8873L100.764 23.8873L96.2654 47.3963L92.9666 47.3963L97.5384 23.8873Z" fill="white"/>
</svg>
