<svg width="66" height="52" viewBox="0 0 66 52" fill="none" xmlns="http://www.w3.org/2000/svg">
<path d="M53.9013 20.9373L51.7297 30.0193H61.0364V40.696H49.1704L46.611 51.3033H34.2021L36.7615 40.696H23.8872L21.3279 51.3033H8.91892L11.4783 40.696H0V30.0193H14.0376L16.2092 20.9373H4.96357V10.2607H18.691L21.1727 0H33.5817L31.0999 10.2607H43.9741L46.4559 0H58.8649L56.3831 10.2607H66V20.9373H53.9013ZM41.4924 20.9373H28.6181L26.4465 30.0193H39.3208L41.4924 20.9373Z" fill="white"/>
<path d="M19.5594 12.7633L28.0946 13.6317L19.5883 50.4223L10.7879 50.4223L19.5594 12.7633Z" fill="#685AA4"/>
<path d="M44.9666 12.7633L53.5018 13.6317L44.9955 50.4223L36.1951 50.4223L44.9666 12.7633Z" fill="#685AA4"/>
<path d="M45.3054 11.5837H64.1558V19.5276H43.4204L45.3054 11.5837Z" fill="#685AA4"/>
<path d="M6.2583 11.5837H50.1527V19.5276H6.2583V11.5837Z" fill="#685AA4"/>
<path d="M40.7275 31.3231H59.3086V39.267H40.7275V31.3231Z" fill="#685AA4"/>
<path d="M43.7928 10.3512L45.2409 10.3512L43.2212 20.5384L41.7401 20.5384L43.7928 10.3512Z" fill="white"/>
</svg>
